<?xml version="1.0" encoding="utf-8"?>
<!-- Generator: Adobe Illustrator 24.0.3, SVG Export Plug-In . SVG Version: 6.00 Build 0)  -->
<svg version="1.1" id="Layer_1" xmlns="http://www.w3.org/2000/svg" xmlns:xlink="http://www.w3.org/1999/xlink" x="0px" y="0px"
	 viewBox="0 0 512 512" style="enable-background:new 0 0 512 512;" xml:space="preserve">
<style type="text/css">
	.st0{fill:#A1B8CF;}
</style>
<path class="st0" d="M503.1,311.3l-28-16.1c-30.2-17.4-30.2-60.9,0-78.4l28-16.1c7.2-4.1,9.6-13.3,5.5-20.5L448.4,75.8
	c-4.1-7.2-13.3-9.6-20.5-5.5l-28,16.1c-30.2,17.4-67.9-4.3-67.9-39.2V15c0-8.3-6.7-15-15-15H196.6c-8.3,0-15,6.7-15,15v32.3
	c0,34.8-37.7,56.6-67.9,39.2l-28-16.1c-7.2-4.1-16.3-1.7-20.5,5.5L5,180.2c-4.1,7.2-1.7,16.3,5.5,20.5l28,16.1
	c30.2,17.4,30.2,60.9,0,78.4l-28,16.1c-7.2,4.1-9.6,13.3-5.5,20.5l60.2,104.4c4.1,7.2,13.3,9.6,20.5,5.5l28-16.1
	c30.2-17.4,67.9,4.3,67.9,39.2V497c0,8.3,6.7,15,15,15h120.5c8.3,0,15-6.7,15-15v-32.3c0-34.8,37.7-56.6,67.9-39.2l28,16.1
	c7.2,4.1,16.3,1.7,20.5-5.5l60.2-104.4C512.8,324.6,510.3,315.5,503.1,311.3z M429.9,408.2l-15-8.6c-50.2-29-112.9,7.2-112.9,65.2
	V482h-90.5v-17.3c0-57.9-62.7-94.2-112.9-65.2l-15,8.6l-45.2-78.4l15-8.6c50.2-29,50.2-101.3,0-130.3l-15-8.6l45.2-78.4l15,8.6
	c50.2,29,112.9-7.2,112.9-65.2V30h90.5v17.3c0,57.9,62.7,94.2,112.9,65.2l15-8.6l45.2,78.4l-15,8.6c-50.2,29-50.2,101.3,0,130.3
	l15,8.6L429.9,408.2z"/>
<path class="st0" d="M256.8,151c-57.9,0-105,47.1-105,105s47.1,105,105,105c57.9,0,105-47.1,105-105S314.7,151,256.8,151z
	 M256.8,331c-41.4,0-75-33.6-75-75s33.6-75,75-75c41.3,0,75,33.6,75,75S298.2,331,256.8,331z"/>
</svg>
