<?xml version="1.0" encoding="utf-8"?>
<!-- Generator: Adobe Illustrator 24.0.3, SVG Export Plug-In . SVG Version: 6.00 Build 0)  -->
<svg version="1.1" id="Layer_1" xmlns="http://www.w3.org/2000/svg" xmlns:xlink="http://www.w3.org/1999/xlink" x="0px" y="0px"
	 viewBox="0 0 512 512" style="enable-background:new 0 0 512 512;" xml:space="preserve">
<style type="text/css">
	.st0{fill:#A1B8CF;}
</style>
<path class="st0" d="M423,202.9c-3.8-6.7-10.9-10.9-18.6-10.9H276.8l21.8-166.9c1.5-11.7-6.7-22.4-18.4-23.9
	c-8.3-1.1-16.5,2.8-21,10L89.4,287.5c-6.2,10-3,23.2,7,29.3c3.4,2.1,7.2,3.2,11.2,3.2H233l-19.6,167.2c-1.4,11.7,7,22.3,18.7,23.7
	c8.3,1,16.3-2.9,20.7-10l169.8-276.3C426.6,217.9,426.7,209.7,423,202.9L423,202.9z M267,396.1l11.1-94.9c1.4-11.7-7-22.3-18.7-23.7
	c-0.8-0.1-1.7-0.1-2.5-0.1H145.7l97.7-158.9l-12.1,92.1c-1.5,11.7,6.7,22.4,18.4,23.9c0.9,0.1,1.8,0.2,2.8,0.2h113.7L267,396.1z"/>
</svg>
