<?xml version="1.0" encoding="utf-8"?>
<!-- Generator: Adobe Illustrator 24.0.3, SVG Export Plug-In . SVG Version: 6.00 Build 0)  -->
<svg version="1.1" id="Layer_1" xmlns="http://www.w3.org/2000/svg" xmlns:xlink="http://www.w3.org/1999/xlink" x="0px" y="0px"
	 viewBox="0 0 512 512" style="enable-background:new 0 0 512 512;" xml:space="preserve">
<style type="text/css">
	.st0{fill:#A1B8CF;}
</style>
<path class="st0" d="M207.1,142.5h49.9v65.3c0,13.8,17.2,20.4,26.4,9.8l96.4-112.5c8.3-9.7,1.4-24.8-11.4-24.8h-49.3V15
	c0-13.9-17.3-20.3-26.4-9.8l-97.1,112.5C187.4,127.4,194.3,142.5,207.1,142.5z"/>
<path class="st0" d="M511.1,234.9c-0.8-2.3-2.2-4.3-3.9-5.9c-21.4-21-54.9-19.5-75.1,0.8L314.8,346.9c-2.8,2.8-6.6,4.4-10.6,4.4
	h-79.9c-8.1,0-15-6.2-15.4-14.3c-0.4-8.6,6.5-15.7,15-15.7h67.9c4,0,7.8-1.6,10.6-4.4l41.1-41.1c6.9-6.9,2-18.8-7.8-18.8H192.9
	c-25.5,0-49.4,9.9-67.4,27.9l-46.2,46.2l-5.5-5.5c-5.9-5.9-15.4-5.9-21.2,0L4.4,373.9c-5.9,5.9-5.9,15.4,0,21.2l112.5,112.5
	c5.9,5.9,15.4,5.9,21.2,0l48.2-48.2c5.9-5.9,5.9-15.4,0-21.2l-5.5-5.5l17.1-17.1h138.4c4,0,7.8-1.6,10.6-4.4l160.7-160.7
	C511.6,246.5,513.1,240.5,511.1,234.9z"/>
</svg>
