<?xml version="1.0" encoding="utf-8"?>
<!-- Generator: Adobe Illustrator 24.0.3, SVG Export Plug-In . SVG Version: 6.00 Build 0)  -->
<svg version="1.1" id="Layer_1" xmlns="http://www.w3.org/2000/svg" xmlns:xlink="http://www.w3.org/1999/xlink" x="0px" y="0px"
	 viewBox="0 0 492 492" style="enable-background:new 0 0 492 492;" xml:space="preserve">
<style type="text/css">
	.st0{fill:#A1B8CF;}
</style>
<g>
	<g>
		<path class="st0" d="M465.1,207.6L465.1,207.6H284.4V27.3c0-14.8-12-27.2-26.9-27.2h-23.1c-14.8,0-26.9,12.4-26.9,27.2v180.3H26.9
			c-14.8,0-26.9,12-26.9,26.8v23.2c0,14.8,12.1,26.8,26.9,26.8h180.7v181c0,14.8,12.1,26.6,26.9,26.6h23.1
			c14.8,0,26.9-11.8,26.9-26.6v-181h180.6c14.8,0,26.9-12,26.9-26.8v-23.2C492,219.6,479.9,207.6,465.1,207.6z"/>
	</g>
</g>
</svg>
