<?xml version="1.0" encoding="utf-8"?>
<!-- Generator: Adobe Illustrator 24.0.3, SVG Export Plug-In . SVG Version: 6.00 Build 0)  -->
<svg version="1.1" id="Capa_1" xmlns="http://www.w3.org/2000/svg" xmlns:xlink="http://www.w3.org/1999/xlink" x="0px" y="0px"
	 viewBox="0 0 384 384" style="enable-background:new 0 0 384 384;" xml:space="preserve">
<style type="text/css">
	.st0{fill:#A1B8CF;}
</style>
<g>
	<g>
		<path class="st0" d="M368,176h-14.1l4.4-8.8c4-7.9,0.8-17.5-7.2-21.5c-7.9-4-17.5-0.7-21.5,7.2L318.1,176h-87.5l61.9-61.9
			l24.6,8.2c1.7,0.6,3.4,0.8,5.1,0.8c6.7,0,12.9-4.2,15.2-10.9c2.8-8.4-1.7-17.4-10.1-20.2l-9.4-3.1l10-10c6.2-6.2,6.2-16.4,0-22.6
			s-16.4-6.2-22.6,0l-10,10l-3.1-9.4c-2.8-8.4-11.8-12.9-20.2-10.1c-8.4,2.8-12.9,11.9-10.1,20.2l8.2,24.6L208,153.4V65.9l23.2-11.6
			c7.9-4,11.1-13.6,7.2-21.5c-4-7.9-13.5-11.1-21.5-7.2l-8.8,4.4V16c0-8.8-7.2-16-16-16s-16,7.2-16,16v14.1l-8.8-4.4
			c-7.9-4-17.5-0.8-21.5,7.2c-4,7.9-0.7,17.5,7.2,21.5L176,65.9v87.5l-61.9-61.9l8.2-24.6c2.8-8.4-1.7-17.4-10.1-20.2
			c-8.4-2.8-17.4,1.7-20.2,10.1l-3.1,9.4l-10-10c-6.2-6.2-16.4-6.2-22.6,0c-6.2,6.2-6.2,16.4,0,22.6l10,10L56.8,92
			c-8.4,2.8-12.9,11.9-10.1,20.2c2.2,6.7,8.5,10.9,15.2,10.9c1.7,0,3.4-0.3,5.1-0.8l24.6-8.2l61.9,61.9H65.9l-11.6-23.2
			c-4-7.9-13.6-11.1-21.5-7.2c-7.9,4-11.1,13.6-7.2,21.5l4.4,8.8H16c-8.8,0-16,7.2-16,16s7.2,16,16,16h14.1l-4.4,8.8
			c-4,7.9-0.7,17.5,7.2,21.5c2.3,1.2,4.7,1.7,7.1,1.7c5.9,0,11.5-3.2,14.3-8.8L65.9,208h87.5l-61.9,61.9L67,261.7
			c-8.4-2.8-17.4,1.7-20.2,10.1s1.7,17.4,10.1,20.2l9.4,3.1l-10,10c-6.2,6.2-6.2,16.4,0,22.6c3.1,3.1,7.2,4.7,11.3,4.7
			s8.2-1.6,11.3-4.7l10-10l3.1,9.4c2.2,6.7,8.5,10.9,15.2,10.9c1.7,0,3.4-0.3,5.1-0.8c8.4-2.8,12.9-11.9,10.1-20.2l-8.2-24.6
			l61.9-61.9v87.5l-23.2,11.6c-7.9,4-11.1,13.6-7.2,21.5c2.8,5.6,8.5,8.8,14.3,8.8c2.4,0,4.8-0.5,7.1-1.7l8.8-4.4V368
			c0,8.8,7.2,16,16,16s16-7.2,16-16v-14.1l8.8,4.4c2.3,1.2,4.7,1.7,7.1,1.7c5.9,0,11.5-3.2,14.3-8.8c4-7.9,0.8-17.5-7.2-21.5
			L208,318.1v-87.5l61.9,61.9l-8.2,24.6c-2.8,8.4,1.7,17.4,10.1,20.2c1.7,0.6,3.4,0.8,5.1,0.8c6.7,0,12.9-4.2,15.2-10.9l3.1-9.4
			l10,10c3.1,3.1,7.2,4.7,11.3,4.7s8.2-1.6,11.3-4.7c6.2-6.2,6.2-16.4,0-22.6l-10-10l9.4-3.1c8.4-2.8,12.9-11.9,10.1-20.2
			s-11.8-12.9-20.2-10.1l-24.6,8.2L230.6,208h87.5l11.6,23.2c2.8,5.6,8.5,8.8,14.3,8.8c2.4,0,4.8-0.5,7.1-1.7
			c7.9-4,11.1-13.6,7.2-21.5l-4.4-8.8H368c8.8,0,16-7.2,16-16S376.8,176,368,176z"/>
	</g>
</g>
</svg>
